<svg xmlns="http://www.w3.org/2000/svg" width="167.557" height="43.252" viewBox="0 0 167.557 43.252"><g transform="translate(-153.701 -47.629)"><g transform="translate(153.701 47.629)"><path d="M-683.834-74.044a21.547,21.547,0,0,0-4.806-2.412v30.008a11.77,11.77,0,0,0,4.806-9.475V-67.832a16.762,16.762,0,0,1,4.805,11.771,16.823,16.823,0,0,1-14.417,16.65V-77.555a21.849,21.849,0,0,0-2.4-.132,21.668,21.668,0,0,0-2.4.133,21.451,21.451,0,0,0-4.806,1.1,21.509,21.509,0,0,0-4.806,2.411,21.605,21.605,0,0,0-9.611,17.984,21.605,21.605,0,0,0,9.611,17.984,21.507,21.507,0,0,0,4.806,2.411V-65.673q-.323.235-.629.489l-.013.011a12.023,12.023,0,0,0-4.164,9.112v11.772a16.767,16.767,0,0,1-4.805-11.772,16.767,16.767,0,0,1,4.805-11.772,16.843,16.843,0,0,1,4.806-3.429,16.7,16.7,0,0,1,4.806-1.449v38.143a21.684,21.684,0,0,0,2.4.133,21.681,21.681,0,0,0,2.4-.133,21.628,21.628,0,0,0,19.223-21.493,21.6,21.6,0,0,0-9.611-17.983" transform="translate(717.474 77.687)" fill="#2abf7a"/></g><text transform="translate(209.258 75.606)" fill="#fff" font-size="22" font-family="SegoeUIBlack, Segoe UI" letter-spacing="0.02em"><tspan x="0" y="0">DYNAMIC</tspan></text></g></svg>