<svg xmlns="http://www.w3.org/2000/svg" viewBox="0 0 882.18 930"><defs><style>.cls-1{fill:#fff;}</style></defs><title>Asset 1</title><g id="Layer_2" data-name="Layer 2"><g id="Слой_1" data-name="Слой 1"><path class="cls-1" d="M641.59,60.79a359,359,0,0,0-80.2-40.25V521.32c48.7-36.05,80.2-93.46,80.2-158.12V164.46a279.7,279.7,0,0,1,80.2,196.44c0,141.41-104.57,258.4-240.6,277.86V2.2a365.64,365.64,0,0,0-80.19,0A359,359,0,0,0,240.59,60.78c-96.72,64.74-160.4,175-160.4,300.12S143.87,596.28,240.59,661a358.54,358.54,0,0,0,80.2,40.23V200.48q-5.4,3.92-10.49,8.17l-.22.18A200.64,200.64,0,0,0,240.59,360.9V557.35A280.67,280.67,0,0,1,401,83V719.58a363.18,363.18,0,0,0,80.19,0C661.64,699.65,802,546.67,802,360.9,802,235.78,738.32,125.52,641.59,60.79Z"/><path class="cls-1" d="M100.53,820.6q-19-17.39-52-17.39H0V930H47.79q33.24,0,52.47-17.84t19.22-45.91Q119.48,838,100.53,820.6ZM74.29,890.33q-9.42,8.52-25.24,8.52H34.86V834H49.05q15.81,0,25.24,8.69t9.44,23.72Q83.73,881.83,74.29,890.33Z"/><polygon class="cls-1" points="185.51 849.39 159.64 803.2 119.94 803.2 167.73 882.54 167.73 930 202.76 930 202.76 882 250.56 803.2 211.57 803.2 185.51 849.39"/><polygon class="cls-1" points="351.62 870.22 299.87 803.2 267.35 803.2 267.35 930 301.85 930 301.85 860.44 355.57 930 386.11 930 386.11 803.2 351.62 803.2 351.62 870.22"/><path class="cls-1" d="M451.87,803.33,398.33,930H435l9-22.46h48.51L501.64,930H539L485.47,803.33Zm2.34,77.08,14.19-35.75,14,35.75Z"/><polygon class="cls-1" points="619.27 852.3 589.27 803.21 552.43 803.21 552.43 930 586.57 930 586.57 857.55 618.55 906.82 619.27 906.82 651.43 857.19 651.43 930 686.11 930 686.11 803.21 649.28 803.21 619.27 852.3"/><rect class="cls-1" x="709.11" y="803.21" width="35.03" height="126.79"/><path class="cls-1" d="M856,884.37a50.81,50.81,0,0,1-12.76,11.06,30.75,30.75,0,0,1-15.63,3.74q-13.11,0-21.56-9.32t-8.44-23.25q0-13.76,8.44-23.16A27.69,27.69,0,0,1,827.56,834q16,0,27.67,14.11L880.75,829q-19.23-25.77-52.83-25.78-28.38,0-47.34,18.29t-19,45.11q0,27.35,18.78,45.37t46.08,18q19.59,0,32.7-7.23a72.92,72.92,0,0,0,23-20.29Z"/></g></g></svg>